# xmcd CD database file
#
# Track frame offsets:
#	150
#	20292
#	52860
#	82963
#	103891
#	129435
#	150012
#	173354
#	194615
#	217043
#	233394
#	261578
#	282699
#	302500
#
# Disc length: 4435 seconds
#
# Revision: 0
# Processed by: cddbd v1.5.2PL0 Copyright (c) Steve Scherf et al.
# Submitted via: CDex 1.51
#
DISCID=b011510e
DTITLE=Various Artist - Jazz The New Chapter
DYEAR=2014
DGENRE=Jazz
TTITLE0=J Dillalude
TTITLE1=Tribal Dance
TTITLE2=Magnolia
TTITLE3=Rubylou's Lullaby
TTITLE4=Who They Wish I Was
TTITLE5=The Lee Morgan Story
TTITLE6=The Real
TTITLE7=Rising Son
TTITLE8=Vanguard
TTITLE9=The "In" Crowd
TTITLE10=Our Secret World
TTITLE11=Erishta
TTITLE12=Africa
TTITLE13=WonderLove
EXTD=YEAR: 2014
EXTT0=
EXTT1=
EXTT2=
EXTT3=
EXTT4=
EXTT5=
EXTT6=
EXTT7=
EXTT8=
EXTT9=
EXTT10=
EXTT11=
EXTT12=
EXTT13=
PLAYORDER=
